<?xml version="1.0" standalone="no"?>
<!DOCTYPE svg PUBLIC "-//W3C//DTD SVG 20010904//EN"
 "http://www.w3.org/TR/2001/REC-SVG-20010904/DTD/svg10.dtd">
<svg version="1.0" xmlns="http://www.w3.org/2000/svg"
 width="212.000000pt" height="212.000000pt" viewBox="0 0 212.000000 212.000000"
 preserveAspectRatio="xMidYMid meet">
<metadata>
Created by potrace 1.11, written by Peter Selinger 2001-2013
</metadata>
<g transform="translate(0.000000,212.000000) scale(0.100000,-0.100000)"
fill="#000000" stroke="none">
<path d="M879 2021 c-25 -10 -60 -28 -78 -42 -36 -27 -91 -104 -91 -129 0 -9
-14 -29 -31 -46 -45 -43 -68 -95 -82 -185 -10 -69 -9 -90 7 -157 12 -50 20
-142 25 -262 6 -180 8 -187 38 -252 60 -129 157 -201 313 -234 61 -13 88 -14
142 -5 163 27 259 94 326 230 l37 75 2 180 c2 116 0 174 -6 161 -5 -11 -10
-49 -10 -85 -2 -90 -18 -195 -36 -230 -19 -37 -82 -80 -116 -80 -22 0 -31 9
-50 48 -34 68 -59 77 -209 77 -150 0 -175 -9 -209 -77 -19 -39 -28 -48 -50
-48 -34 0 -97 43 -116 80 -37 71 -49 352 -20 475 18 79 45 129 105 197 l41 47
40 -29 c99 -71 326 -78 425 -13 22 14 26 12 81 -47 73 -79 80 -92 101 -195 9
-47 22 -86 27 -86 16 -1 46 89 52 156 7 77 -17 175 -58 234 -30 43 -30 44 -13
79 24 52 15 129 -20 159 -33 28 -65 29 -139 3 -71 -25 -95 -25 -188 0 -92 24
-180 25 -240 1z m263 -999 c68 -5 98 -32 98 -90 0 -68 -78 -143 -119 -114 -45
33 -96 34 -116 3 -9 -15 -47 -13 -69 4 -56 43 -73 121 -35 169 17 22 28 26 72
26 29 0 59 5 67 10 8 5 22 7 30 3 8 -4 41 -9 72 -11z"/>
<path d="M924 995 c-10 -25 27 -92 47 -85 18 6 160 6 178 0 21 -7 57 61 47 86
-8 18 -8 18 -17 -3 -8 -22 -14 -23 -113 -23 -96 0 -106 2 -120 22 -14 20 -16
20 -22 3z"/>
<path d="M824 1440 c-35 -8 -94 -46 -94 -61 0 -13 2 -12 56 18 38 21 62 28
107 28 59 0 74 8 35 19 -29 7 -64 6 -104 -4z"/>
<path d="M1188 1444 c-35 -11 -17 -19 40 -19 44 0 68 -7 106 -28 55 -30 56
-31 56 -17 0 5 -17 21 -37 34 -38 25 -127 41 -165 30z"/>
<path d="M830 1295 c-15 -18 -4 -52 19 -60 40 -12 70 20 51 56 -13 22 -52 25
-70 4z"/>
<path d="M1220 1291 c-19 -36 14 -70 53 -55 22 8 31 42 17 59 -18 21 -57 18
-70 -4z"/>
<path d="M711 594 c-93 -25 -185 -81 -253 -153 -35 -37 -69 -79 -77 -94 -14
-26 -13 -29 15 -58 98 -105 268 -209 408 -249 225 -64 447 -44 661 59 81 40
200 126 259 190 28 29 29 32 15 58 -8 15 -42 57 -77 94 -69 74 -161 128 -258
154 -77 20 -81 20 -87 -13 -8 -42 -43 -80 -100 -109 -46 -24 -64 -27 -147 -28
-70 0 -107 5 -140 18 -59 24 -108 72 -116 114 -7 38 -18 40 -103 17z"/>
</g>
</svg>
